<svg width="397" height="445" fill="none" xmlns="http://www.w3.org/2000/svg">
  <g clip-path="url(#clip0)" fill="#3D3D3D">
    <path d="M369.707 303.586c-4.785-11.621-11.385-23.065-21.038-36.282-24.337-33.177-31.762-107.16-31.845-107.87-.33-3.548-2.64-6.476-5.692-7.54-3.135-1.065-6.518-.089-8.745 2.572-29.04 35.218-16.83 89.596-10.23 111.33 1.815 5.943 3.795 12.951 5.196 20.048 10.725 57.394-9.982 83.386-14.85 88.62-4.702 1.419-7.92.709-10.89-2.75-10.23-12.153-13.612-51.984-8.827-103.878.991-10.556.742-20.048-.66-28.919-10.092-63.784-47.093-104.698-56.513-119.047C179.708 78.354 177.068 9.25 176.986 8.63c-.083-3.283-1.815-6.21-4.538-7.63-2.64-1.419-5.857-1.241-8.332.621-43.231 31.847-39.518 108.58-33.496 151.426 1.403 9.935 4.125 20.048 8.828 32.822 16.748 45.685-3.3 104.676-3.465 105.209-.165.532-.33.975-.413 1.508-2.557 14.548-6.847 23.241-11.632 23.241-.495 0-.99-.088-1.568-.266-5.857-1.33-8.91-8.072-8.992-13.927-.33-75.668-70.373-101.128-71.115-101.394-3.135-1.064-6.6-.089-8.745 2.661-2.228 2.75-2.64 6.565-1.155 9.758.825 1.863 3.465 10.024 1.65 38.855-1.568 25.903-5.94 51.539-12.953 76.112C4.395 386.528 7.035 442.326 7.2 444.987c12.815 151.077 213.213 177.549 332.146 92.434 13.035-9.314 23.678-19.959 31.515-31.669 43.891-65.644 18.069-154.796-1.154-202.166zM64.869 447.914c.247 4.879-3.218 9.049-7.755 9.315h-.495c-4.373 0-8.003-3.637-8.25-8.339-.743-12.951-.578-26.524.33-41.249.33-4.879 4.29-8.516 8.827-8.251 4.538.355 8.003 4.613 7.673 9.492-.909 14.017-1.073 26.791-.33 39.032zm4.041-78.595c-.495 4.524-4.042 7.806-8.167 7.806-.33 0-.66 0-1.073-.089-4.455-.621-7.672-4.967-7.177-9.846l3.96-34.242c.577-4.79 4.62-8.25 9.24-7.718 4.537.621 7.755 5.057 7.177 9.936l-3.96 34.153zM313.892 121.362c-4.499-.749-7.585-5.271-6.892-10.109.516-3.604 3.497-22.056 11.586-31.334 3.113-3.577 8.326-3.763 11.662-.402 3.323 3.348 3.492 8.962.374 12.54-3.423 3.928-6.341 15.172-7.315 21.9-.696 4.787-4.848 8.146-9.415 7.405zM13.129 165.55c-1.58-6.598-5.503-17.478-9.27-21.03-3.427-3.231-3.77-8.836-.765-12.517 2.998-3.691 8.206-4.068 11.642-.824 8.89 8.382 13.535 26.431 14.377 29.961 1.128 4.743-1.53 9.568-5.937 10.789-4.505 1.218-8.924-1.715-10.047-6.379z"/>
  </g>
  <defs>
    <clipPath id="clip0">
      <path fill="#fff" d="M0 0h396.001v445H0z"/>
    </clipPath>
  </defs>
</svg>
