<!-- Generated by IcoMoon.io -->
<svg version="1.1" xmlns="http://www.w3.org/2000/svg" width="31" height="32" viewBox="0 0 31 32">
<title>mobile-learning-bord-desk</title>
<path fill="#ff6b09" d="M20.406 8.558h-7.116c-0.463 0-0.84 0.377-0.84 0.84v2.946l-5.287 2.219c-0.060 0.025-0.101 0.082-0.105 0.146s0.027 0.127 0.083 0.16l0.674 0.403v4.3c-0.345 0.079-0.603 0.387-0.603 0.756v0.414c0 0.095 0.077 0.172 0.172 0.172h1.207c0.095 0 0.172-0.077 0.172-0.172v-0.414c0-0.369-0.259-0.677-0.604-0.756v-4.094l0.533 0.319c-0.016 0.123-0.002-0.214-0.008 2.002 0 0.729 1.866 1.119 3.765 1.141v3.356c0 0.173 0.053 0.335 0.144 0.468 0.151 0.223 0.407 0.37 0.696 0.37h7.116c0.463 0 0.839-0.377 0.839-0.839 0 0.023-0.001-0.711 0-12.898 0-0.457-0.378-0.84-0.839-0.84zM8.42 20.328v0.242h-0.863v-0.242c0-0.239 0.193-0.433 0.43-0.433 0.239 0 0.433 0.194 0.433 0.433zM20.406 22.79h-7.116c-0.171 0-0.322-0.086-0.411-0.218-0.053-0.079-0.085-0.174-0.085-0.276v-1.163h8.105v1.164c0 0.27-0.225 0.494-0.494 0.494zM20.9 20.788h-8.105v-1.847c0.927-0.011 3.767-0.215 3.767-1.142-0.001-1.392 0.002-1.957-0.004-2.005l1.546-0.926c0.056-0.033 0.088-0.095 0.083-0.16s-0.045-0.121-0.105-0.146l-5.286-2.219v-1.438h8.105v9.883zM12.622 16.656c-0.955 0-2.794 0.123-3.592 0.645 0.005-1.595-0.055-1.491 0.141-1.627 0.496-0.365 1.915-0.62 3.451-0.62 0.67 0 3.595 0.184 3.595 0.803v1.444c-0.806-0.526-2.636-0.645-3.595-0.645zM12.795 9.398c0-0.273 0.222-0.495 0.495-0.495h7.116c0.273 0 0.494 0.225 0.494 0.495v1.163h-8.105v-1.163zM12.622 12.644l5.012 2.104-1.242 0.743c-0.66-0.655-2.844-0.782-3.77-0.782-0.927 0-3.111 0.127-3.77 0.782l-1.242-0.743 5.012-2.104zM9.030 17.799c0-0.279 1.234-0.799 3.592-0.799 2.36 0 3.595 0.52 3.595 0.799s-1.235 0.799-3.595 0.799c-2.359 0-3.592-0.52-3.592-0.799z"></path>
<path fill="#ff6b09" d="M16.848 21.392c-0.314 0-0.569 0.255-0.569 0.569s0.255 0.57 0.569 0.57c0.314 0 0.57-0.256 0.57-0.57s-0.255-0.569-0.57-0.569zM16.848 22.186c-0.124 0-0.225-0.101-0.225-0.225s0.101-0.225 0.225-0.225c0.124 0 0.225 0.101 0.225 0.225s-0.101 0.225-0.225 0.225z"></path>
<path fill="#ff6b09" d="M17.505 9.56h-1.313v0.344h1.313v-0.344z"></path>
<path fill="none" stroke="#ff6b09" stroke-linejoin="miter" stroke-linecap="butt" stroke-miterlimit="4" stroke-width="0.6154" d="M31.077 4.615v-4.308h-30.769v31.385h30.769v-4.308"></path>
</svg>
