<svg width="389" height="445" viewBox="0 0 389 445" fill="none" xmlns="http://www.w3.org/2000/svg">
<path d="M363.707 303.586C358.922 291.965 352.322 280.521 342.669 267.304C318.332 234.127 310.907 160.144 310.824 159.434C310.494 155.886 308.184 152.958 305.132 151.894C301.997 150.829 298.614 151.805 296.387 154.466C267.347 189.684 279.557 244.062 286.157 265.796C287.972 271.739 289.952 278.747 291.353 285.844C302.078 343.238 281.371 369.23 276.503 374.464C271.801 375.883 268.583 375.173 265.613 371.714C255.383 359.561 252.001 319.73 256.786 267.836C257.777 257.28 257.528 247.788 256.126 238.917C246.034 175.133 209.033 134.219 199.613 119.87C173.708 78.3544 171.068 9.25043 170.986 8.62947C170.903 5.34725 169.171 2.41987 166.448 1.00053C163.808 -0.418809 160.591 -0.241391 158.116 1.62149C114.885 33.4679 118.598 110.201 124.62 153.047C126.023 162.982 128.745 173.095 133.448 185.869C150.196 231.554 130.148 290.545 129.983 291.078C129.818 291.61 129.653 292.053 129.57 292.586C127.013 307.134 122.723 315.827 117.938 315.827C117.443 315.827 116.948 315.739 116.37 315.561C110.513 314.231 107.46 307.489 107.378 301.634C107.048 225.966 37.0052 200.506 36.2627 200.24C33.1277 199.176 29.6627 200.151 27.5177 202.901C25.2902 205.651 24.8776 209.466 26.3627 212.659C27.1877 214.522 29.8277 222.683 28.0127 251.514C26.4452 277.417 22.0726 303.053 15.0601 327.626C-1.60494 386.528 1.03507 442.326 1.20007 444.987C14.0148 596.064 214.413 622.536 333.346 537.421C346.381 528.107 357.024 517.462 364.861 505.752C408.752 440.108 382.93 350.956 363.707 303.586ZM58.8686 447.914C59.1161 452.793 55.6511 456.963 51.1135 457.229H50.6186C46.246 457.229 42.616 453.592 42.3685 448.89C41.626 435.939 41.791 422.366 42.6985 407.641C43.0285 402.762 46.9885 399.125 51.5261 399.39C56.0636 399.745 59.5286 404.003 59.1986 408.882C58.2903 422.899 58.1261 435.673 58.8686 447.914ZM62.9103 369.319C62.4153 373.843 58.8678 377.125 54.7427 377.125C54.4127 377.125 54.0827 377.125 53.6702 377.036C49.2152 376.415 45.9977 372.069 46.4927 367.19L50.4527 332.948C51.0302 328.158 55.0727 324.698 59.6928 325.23C64.2303 325.851 67.4478 330.287 66.8703 335.166L62.9103 369.319Z" fill="#3D3D3D"/>
</svg>
