<svg aria-hidden="true" style="position: absolute; width: 0; height: 0; overflow: hidden;" version="1.1" xmlns="http://www.w3.org/2000/svg" xmlns:xlink="http://www.w3.org/1999/xlink">
<defs>
<symbol id="icon-arrow-left" viewBox="0 0 54 32">
<path fill="#ff6b09" style="fill: var(--color1, #ff6b09)" d="M52 14c1.105 0 2 0.895 2 2s-0.895 2-2 2v-4zM0.586 17.414c-0.781-0.781-0.781-2.047 0-2.828l12.728-12.728c0.781-0.781 2.047-0.781 2.828 0s0.781 2.047 0 2.828l-11.314 11.314 11.314 11.314c0.781 0.781 0.781 2.047 0 2.828s-2.047 0.781-2.828 0l-12.728-12.728zM52 18h-50v-4h50v4z"></path>
</symbol>
<symbol id="icon-arrow-right" viewBox="0 0 54 32">
<path fill="#ff6b09" style="fill: var(--color1, #ff6b09)" d="M2 14c-1.105 0-2 0.895-2 2s0.895 2 2 2v-4zM53.414 17.414c0.781-0.781 0.781-2.047 0-2.828l-12.728-12.728c-0.781-0.781-2.047-0.781-2.828 0s-0.781 2.047 0 2.828l11.314 11.314-11.314 11.314c-0.781 0.781-0.781 2.047 0 2.828s2.047 0.781 2.828 0l12.728-12.728zM2 18h50v-4h-50v4z"></path>
</symbol>
<symbol id="icon-output" viewBox="0 0 32 32">
<path  stroke-linejoin="miter" stroke-linecap="butt" stroke-miterlimit="4" stroke-width="3.7647" d="M1.887 29.643l27.286-27.286"></path>
<path  stroke-linejoin="miter" stroke-linecap="butt" stroke-miterlimit="4" stroke-width="3.7647" d="M29.172 29.643l-27.286-27.286"></path>
</symbol>
<symbol id="icon-burger-menu" viewBox="0 0 46 32">
<path stroke-linejoin="miter" stroke-linecap="butt" stroke-miterlimit="4" stroke-width="4.5714" d="M0 2.286h46.857"></path>
<path stroke-linejoin="miter" stroke-linecap="butt" stroke-miterlimit="4" stroke-width="4.5714" d="M0 16h46.857"></path>
<path stroke-linejoin="miter" stroke-linecap="butt" stroke-miterlimit="4" stroke-width="4.5714" d="M0 29.714h46.857"></path>
</symbol>
<symbol id="icon-money" viewBox="0 0 32 32">
<path fill="#ff6b09" style="fill: var(--color1, #ff6b09)" d="M8.25 14.958c0 0.165-0.25 0.165-0.25 0 0-3.502 2.84-6.342 6.343-6.342 3.504 0 6.343 2.84 6.343 6.343 0 0.165-0.249 0.165-0.249 0 0-2.367-3.89-2.369-3.89 0 0 0.165-0.256 0.165-0.256 0 0-2.361-3.896-2.361-3.896 0 0 0.165-0.256 0.165-0.256 0 0-2.357-3.888-2.373-3.888 0zM12.161 14.039c0.067-1.363 0.281-2.584 0.593-3.517 0.249-0.741 0.563-1.304 0.919-1.62-2.674 0.292-4.839 2.319-5.323 4.949 0.921-1.328 3.047-1.222 3.811 0.189zM16.271 13.977c-0.069-1.31-0.277-2.482-0.576-3.376-0.773-2.313-1.931-2.313-2.704 0-0.299 0.894-0.506 2.066-0.576 3.376 0.831-1.412 3.026-1.412 3.857 0zM20.335 13.85c-0.482-2.629-2.647-4.657-5.323-4.949 0.358 0.316 0.671 0.879 0.919 1.62 0.311 0.933 0.526 2.155 0.593 3.517 0.768-1.418 2.9-1.502 3.811-0.189z"></path>
<path fill="#ff6b09" style="fill: var(--color1, #ff6b09)" d="M13.51 17.86v-1.288c-0.232 0.154-0.415 0.392-0.415 0.683 0 0.283 0.186 0.47 0.415 0.605zM13.76 18.26c-0.445-0.204-0.913-0.442-0.913-1.005 0-0.581 0.442-0.872 0.913-1.089v2.094z"></path>
<path fill="#ff6b09" style="fill: var(--color1, #ff6b09)" d="M15.175 19.803v1.303c0.235-0.156 0.419-0.395 0.419-0.686 0-0.286-0.189-0.479-0.419-0.617zM14.926 19.402c0.446 0.207 0.918 0.452 0.918 1.018 0 0.582-0.445 0.873-0.918 1.089v-2.107z"></path>
<path fill="#ff6b09" style="fill: var(--color1, #ff6b09)" d="M15.175 15.106c1.024 0.237 2.077 1.003 2.077 2.149 0 0.981-1.658 0.945-1.658 0 0-0.292-0.184-0.532-0.419-0.686v1.833c0.948 0.31 2.080 0.865 2.080 2.018 0 1.147-1.053 1.912-2.080 2.147-0.005 1.092-1.662 1.090-1.665-0.001-0.584-0.135-1.092-0.407-1.458-0.768-0.385-0.38-0.612-0.858-0.612-1.378 0-0.966 1.656-0.966 1.656 0 0 0.289 0.183 0.527 0.415 0.681v-1.831c-0.94-0.304-2.078-0.876-2.078-2.018 0-1.147 1.053-1.912 2.078-2.147 0.005-1.092 1.662-1.090 1.665 0.001zM13.76 15.109v0.199c-0.975 0.193-2.080 0.818-2.080 1.944 0 1.083 1.213 1.568 2.080 1.836v2.42c-0.469-0.214-0.913-0.503-0.913-1.087 0-0.638-1.159-0.638-1.159 0 0 0.451 0.201 0.867 0.539 1.199 0.43 0.425 0.951 0.627 1.533 0.743v0.201c0 0.768 1.166 0.768 1.166 0v-0.199c0.978-0.195 2.078-0.819 2.078-1.944 0-1.093-1.21-1.563-2.078-1.837v-2.418c0.47 0.214 0.918 0.503 0.918 1.090 0 0.621 1.157 0.647 1.157 0 0-1.125-1.099-1.75-2.075-1.945v-0.201c0-0.768-1.166-0.768-1.166 0z"></path>
<path fill="none" stroke="#ff6b09" style="stroke: var(--color1, #ff6b09)" stroke-linejoin="miter" stroke-linecap="butt" stroke-miterlimit="4" stroke-width="0.6154" d="M31.385 4.615v-4.308h-30.769v31.385h30.769v-4.308"></path>
</symbol>
<symbol id="icon-mobile-learning-bord" viewBox="0 0 32 32">
<path fill="#ff6b09" style="fill: var(--color1, #ff6b09)" d="M20.714 8.558h-7.116c-0.463 0-0.84 0.377-0.84 0.84v2.946l-5.287 2.219c-0.060 0.025-0.101 0.082-0.105 0.146s0.027 0.127 0.083 0.16l0.674 0.403v4.3c-0.345 0.079-0.603 0.387-0.603 0.756v0.414c0 0.095 0.077 0.172 0.172 0.172h1.207c0.095 0 0.172-0.077 0.172-0.172v-0.414c0-0.369-0.259-0.677-0.604-0.756v-4.094l0.533 0.319c-0.016 0.123-0.002-0.214-0.008 2.002 0 0.729 1.866 1.119 3.765 1.141v3.356c0 0.173 0.053 0.335 0.144 0.468 0.151 0.223 0.407 0.37 0.696 0.37h7.116c0.463 0 0.839-0.377 0.839-0.839 0 0.023-0.001-0.711 0-12.898 0-0.457-0.378-0.84-0.839-0.84zM8.727 20.328v0.242h-0.863v-0.242c0-0.239 0.193-0.433 0.43-0.433 0.239 0 0.433 0.194 0.433 0.433zM20.714 22.79h-7.116c-0.171 0-0.322-0.086-0.411-0.218-0.053-0.079-0.085-0.174-0.085-0.276v-1.163h8.105v1.164c0 0.27-0.225 0.494-0.494 0.494zM21.207 20.788h-8.105v-1.847c0.927-0.011 3.767-0.215 3.767-1.142-0.001-1.392 0.002-1.957-0.004-2.005l1.546-0.926c0.056-0.033 0.088-0.095 0.083-0.16s-0.045-0.121-0.105-0.146l-5.286-2.219v-1.438h8.105v9.883zM12.93 16.656c-0.955 0-2.794 0.123-3.592 0.645 0.005-1.595-0.055-1.491 0.141-1.627 0.496-0.365 1.915-0.62 3.451-0.62 0.67 0 3.595 0.184 3.595 0.803v1.444c-0.806-0.526-2.636-0.645-3.595-0.645zM13.102 9.398c0-0.273 0.222-0.495 0.495-0.495h7.116c0.273 0 0.494 0.225 0.494 0.495v1.163h-8.105v-1.163zM12.93 12.644l5.012 2.104-1.242 0.743c-0.66-0.655-2.844-0.782-3.77-0.782-0.927 0-3.111 0.127-3.77 0.782l-1.242-0.743 5.012-2.104zM9.337 17.799c0-0.279 1.234-0.799 3.592-0.799 2.36 0 3.595 0.52 3.595 0.799s-1.235 0.799-3.595 0.799c-2.359 0-3.592-0.52-3.592-0.799z"></path>
<path fill="#ff6b09" style="fill: var(--color1, #ff6b09)" d="M17.155 21.392c-0.314 0-0.569 0.255-0.569 0.569s0.255 0.57 0.569 0.57c0.314 0 0.569-0.256 0.569-0.57s-0.255-0.569-0.569-0.569zM17.155 22.186c-0.124 0-0.225-0.101-0.225-0.225s0.101-0.225 0.225-0.225c0.124 0 0.225 0.101 0.225 0.225s-0.101 0.225-0.225 0.225z"></path>
<path fill="#ff6b09" style="fill: var(--color1, #ff6b09)" d="M17.812 9.56h-1.313v0.344h1.313v-0.344z"></path>
<path fill="none" stroke="#ff6b09" style="stroke: var(--color1, #ff6b09)" stroke-linejoin="miter" stroke-linecap="butt" stroke-miterlimit="4" stroke-width="0.6154" d="M31.385 4.615v-4.308h-30.769v31.385h30.769v-4.308"></path>
</symbol>
<symbol id="icon-person" viewBox="0 0 32 32">
<path fill="#ff6b09" style="fill: var(--color1, #ff6b09)" d="M8.26 23.273c1.588 0 10.776 0 12.362 0 0.061-1.41-0.040-3.749-0.907-4.862l-0.031-0.040-1.894-0.951c0.041-0.139 0.061-0.266 0.069-0.359 0.009-0.112-0.006-0.217-0.046-0.313-0.312-0.748-0.974-1.141-1.337-1.309 0.111-0.223 0.182-0.463 0.217-0.708 0.206-0.058 0.372-0.221 0.426-0.439l0.221-0.898c0.039-0.158 0.015-0.323-0.070-0.463-0.036-0.060-0.083-0.111-0.136-0.154 0.623-1.416-0.421-2.751-0.478-2.821-1.131-1.222-2.559-0.994-2.634-0.98-2.061 0.432-2.857 2.011-2.408 3.864-0.133 0.147-0.189 0.353-0.14 0.554l0.222 0.899c0.054 0.216 0.218 0.379 0.423 0.437 0.063 0.449 0.253 0.854 0.532 1.181v0.712c-2.958 1.515-1.084 0.548-3.454 1.748-0.005 0.022-1.112 1.2-0.948 4.689l0.010 0.213zM20.193 22.826h-2.035v-0.855l1.346-3.081c0.674 1.119 0.699 3.255 0.689 3.935zM17.416 17.023c-0.079 0.902-0.573 0.629-0.878 1.324-0.24-0.264-0.312-0.581-0.248-0.92 0.117-0.622-0.263-0.807-0.169-1.461l0.014-0.015v-0.002c0.008-0.009 0.083-0.098 0.105-0.126 0.805 0.351 1.192 1.003 1.177 1.2zM13.098 16.314c0.374 0.259 0.825 0.412 1.31 0.412 0.457 0 0.891-0.133 1.263-0.378 0.052 0.514 0.253 0.617 0.181 0.995-0.013 0.070-0.021 0.139-0.025 0.207l-1.386 1.562-1.771-1.997 0.428-0.223v-0.579zM12.541 14.403v-0.866c0-0.319 0-1.584 0-1.521 0.216-0.399 0.51-0.688 0.875-0.861 0.979 0.554 2.105 1.38 2.86 2.211-0.001 1.059 0.003 1.062-0.004 1.149l-0 0.006c-0.059 0.962-0.85 1.759-1.864 1.759-0.986 0-1.804-0.774-1.863-1.768-0.003-0.036-0.004-0.071-0.004-0.108zM12.265 17.332l2.177 2.454 1.461-1.647c0.033 0.096 0.080 0.187 0.134 0.275l-1.595 1.995-2.379-2.975 0.202-0.101zM16.722 14.043v-0.691c0.020-0.022 0.186-0.213 0.166-0.191 0.009 0.35 0.047-0.063-0.166 0.882zM14.105 9.416c0.088 0.005 1.276-0.181 2.215 0.833 0.037 0.046 0.801 1.031 0.494 2.108-0.105-0.479-0.288-1.093-0.578-1.387l-0.316 0.315c0.286 0.289 0.474 1.171 0.545 1.628-1.311-1.372-3.002-2.24-3.025-2.255-0.085 0.053-0.8 0.189-1.32 1.199l-0.025 0.048v0.742c-0.022 0-0.088 0.001-0.066 0.001-0.33-1.594 0.302-2.861 2.076-3.233zM11.983 13.109l0.113 0.456v0.479l-0.187-0.757c-0.027-0.113 0.056-0.156 0.074-0.178zM11.655 17.638l2.787 3.485 1.885-2.358c0.205 0.184 0.304 0.21 0.739 0.433l-0.147-0.497c-0.037-0.126 0.11-0.329 0.199-0.422 0.199-0.108 0.364-0.261 0.488-0.451l1.538 0.772-1.431 3.277v0.948h-6.543v-0.949l-1.432-3.277 1.917-0.962zM9.379 18.891l1.346 3.080v0.855h-2.035c-0.010-0.68 0.015-2.815 0.689-3.934z"></path>
<path fill="none" stroke="#ff6b09" style="stroke: var(--color1, #ff6b09)" stroke-linejoin="miter" stroke-linecap="butt" stroke-miterlimit="4" stroke-width="0.6154" d="M31.385 4.615v-4.308h-30.769v31.385h30.769v-4.308"></path>
</symbol>
<symbol id="icon-audio-book" viewBox="0 0 32 32">
<path fill="#ff6b09" style="fill: var(--color1, #ff6b09)" d="M2.522 27.133h10.121c0.513 1.064 1.586 1.751 2.797 1.751h0.639c1.212 0 2.285-0.687 2.798-1.751h10.127c1.043 0 1.892-0.849 1.892-1.892v-18.128c0-1.043-0.849-1.892-1.892-1.892h-1.022v-0.845c0-0.696-0.566-1.261-1.261-1.261h-21.924c-0.695 0-1.261 0.566-1.261 1.261v0.845h-1.015c-1.043 0-1.892 0.849-1.892 1.892v18.128c0 1.043 0.849 1.892 1.892 1.892zM26.721 23.243h-10.327v-14.653c2.387 0.312 4.238 2.354 4.238 4.825v0.569l-0.15-0.033c-0.163-0.035-0.333-0.006-0.475 0.084s-0.241 0.232-0.277 0.396l-1.004 4.568c-0.074 0.34 0.14 0.675 0.48 0.75l2.169 0.478c0.112 0.024 0.226 0.036 0.34 0.036 0.763 0 1.413-0.522 1.579-1.27l0.581-2.642c0.192-0.867-0.358-1.73-1.228-1.923l-0.755-0.166v-0.847c0-3.168-2.414-5.781-5.499-6.1v-2.939h10.328l-0.001 18.866zM20.827 15.319l1.549 0.341c0.193 0.043 0.312 0.227 0.269 0.421l-0.581 2.641c-0.042 0.191-0.253 0.309-0.42 0.274l-1.55-0.342 0.733-3.335zM4.799 4.377h10.334v2.938c-3.088 0.315-5.505 2.931-5.505 6.1v0.846l-0.756 0.167c-0.421 0.094-0.781 0.345-1.012 0.707-0.232 0.363-0.308 0.795-0.215 1.215l0.579 2.639c0.157 0.739 0.821 1.275 1.58 1.275 0.114 0 0.228-0.012 0.344-0.037l2.16-0.477c0.339-0.075 0.554-0.411 0.48-0.75l-1.004-4.568c-0.036-0.163-0.136-0.306-0.277-0.396s-0.313-0.119-0.475-0.084l-0.144 0.032v-0.568c0-2.473 1.854-4.517 4.244-4.826v14.653h-10.334v-18.866zM10.689 15.319l0.734 3.335-1.542 0.341c-0.19 0.043-0.383-0.083-0.424-0.271l-0.581-2.645c-0.021-0.092-0.004-0.186 0.046-0.264s0.13-0.134 0.222-0.155l1.545-0.341zM1.892 7.113c0-0.348 0.283-0.631 0.631-0.631h1.015v16.76c0 0.695 0.566 1.261 1.261 1.261h21.924c0.695 0 1.261-0.566 1.261-1.261v-16.76h1.022c0.348 0 0.631 0.283 0.631 0.631v18.128c0 0.348-0.283 0.631-0.631 0.631h-10.555c-0.277 0-0.522 0.181-0.603 0.446-0.24 0.781-0.95 1.305-1.767 1.305h-0.639c-0.814 0-1.523-0.522-1.769-1.313-0.084-0.261-0.326-0.438-0.6-0.438h-10.549c-0.348 0-0.631-0.283-0.631-0.631v-18.128z"></path>
</symbol>
<symbol id="icon-female-student" viewBox="0 0 32 32">
<path fill="#ff6b09" style="fill: var(--color1, #ff6b09)" d="M2.564 31.759c3.441 0 23.348 0 26.785 0 0.133-3.055-0.086-8.122-1.964-10.535l-0.068-0.087-4.104-2.060c0.089-0.301 0.133-0.576 0.151-0.778 0.020-0.243-0.013-0.471-0.1-0.678-0.677-1.62-2.11-2.472-2.898-2.836 0.24-0.484 0.395-1.003 0.47-1.534 0.446-0.126 0.805-0.479 0.923-0.951l0.479-1.946c0.085-0.343 0.032-0.699-0.151-1.002-0.078-0.131-0.18-0.24-0.294-0.334 1.351-3.068-0.911-5.96-1.035-6.113-2.45-2.649-5.544-2.153-5.708-2.124-4.466 0.935-6.19 4.358-5.217 8.372-0.288 0.319-0.409 0.764-0.302 1.2l0.481 1.948c0.117 0.468 0.473 0.82 0.916 0.948 0.137 0.972 0.548 1.851 1.152 2.559v1.543c-6.409 3.282-2.348 1.188-7.484 3.786-0.010 0.048-2.41 2.599-2.053 10.159l0.022 0.462zM28.418 30.789h-4.408v-1.852l2.916-6.675c1.461 2.424 1.515 7.053 1.493 8.526zM22.402 18.216c-0.17 1.954-1.242 1.364-1.903 2.869-0.52-0.572-0.677-1.258-0.537-1.993 0.253-1.349-0.57-1.749-0.367-3.166l0.031-0.032v-0.005c0.018-0.020 0.18-0.213 0.227-0.274 1.744 0.76 2.584 2.174 2.55 2.6zM13.045 16.68c0.81 0.562 1.787 0.893 2.838 0.893 0.99 0 1.93-0.288 2.736-0.819 0.112 1.114 0.547 1.337 0.393 2.157-0.029 0.152-0.045 0.302-0.054 0.45l-3.002 3.384-3.838-4.327 0.926-0.484v-1.254zM11.838 12.54v-1.876c0-0.691 0-3.431 0-3.296 0.467-0.864 1.104-1.491 1.896-1.866 2.12 1.2 4.56 2.99 6.197 4.791-0.002 2.294 0.006 2.301-0.009 2.489l-0.001 0.012c-0.128 2.083-1.841 3.811-4.038 3.811-2.136 0-3.909-1.677-4.037-3.831-0.007-0.077-0.008-0.155-0.008-0.233zM11.241 18.886l4.716 5.317 3.166-3.569c0.072 0.208 0.174 0.405 0.29 0.595l-3.456 4.322-5.154-6.446 0.438-0.22zM20.897 11.759v-1.498c0.042-0.049 0.402-0.461 0.36-0.413 0.020 0.758 0.102-0.137-0.36 1.911zM15.228 1.734c0.192 0.012 2.765-0.391 4.799 1.804 0.080 0.1 1.736 2.234 1.071 4.567-0.228-1.038-0.625-2.369-1.252-3.004l-0.686 0.683c0.619 0.627 1.026 2.537 1.181 3.527-2.84-2.972-6.504-4.853-6.555-4.885-0.184 0.114-1.734 0.409-2.86 2.598l-0.054 0.105v1.607c-0.048 0.001-0.19 0.002-0.142 0.002-0.716-3.454 0.655-6.198 4.497-7.004zM10.629 9.736l0.244 0.987v1.038l-0.405-1.639c-0.059-0.244 0.122-0.337 0.161-0.386zM9.919 19.55l6.038 7.551 4.085-5.109c0.444 0.398 0.658 0.454 1.6 0.939l-0.318-1.078c-0.081-0.274 0.239-0.713 0.431-0.914 0.43-0.233 0.789-0.566 1.057-0.977l3.333 1.674-3.101 7.1v2.055h-14.176v-2.055l-3.103-7.099 4.153-2.085zM4.987 22.265l2.916 6.673v1.852h-4.408c-0.022-1.473 0.033-6.099 1.492-8.524z"></path>
</symbol>
<symbol id="icon-heand-people" viewBox="0 0 32 32">
<path fill="#ff6b09" style="fill: var(--color1, #ff6b09)" d="M1.952 12.628v2.774c0 0.149 0.068 0.289 0.185 0.382 1.896 1.492 4.274 2.314 6.698 2.314 0.725 0 1.451-0.076 2.161-0.219 1.513 0.669 3.123 1.011 4.79 1.011 1.672 0 3.283-0.342 4.791-1.011 3.028 0.611 6.254-0.045 8.858-2.095 0.117-0.093 0.185-0.233 0.185-0.382v-2.774c0-0.407-0.202-0.778-0.563-1.006l-3.788-2.131c0.829-1.052 1.446-2.549 1.553-3.833 0.314-2.21-1.487-4.551-4.080-4.551-1.090 0-2.127 0.449-2.888 1.202-0.026 0.026-0.056 0.048-0.082 0.075-0.023 0.024-0.042 0.053-0.065 0.078-0.015 0.017-0.028 0.035-0.043 0.052-0.741-1.352-2.166-2.187-3.844-2.187-0.163 0-0.323 0.011-0.482 0.027-0.010-0.001-0.018-0.006-0.028-0.006-0.090 0-0.281 0.024-0.383 0.053-0.015 0.004-0.026 0.015-0.040 0.021-1.253 0.253-2.315 1.013-2.951 2.112-0.765-0.892-1.89-1.427-3.114-1.427-3.828 0-5.527 4.518-2.505 8.406l-3.823 2.122c-0.339 0.215-0.542 0.586-0.542 0.993zM20.568 16.811c-0.082 0.040-0.163 0.083-0.246 0.121l-0 0c-0.001 0-0.001 0.001-0.002 0.001-1.423 0.654-2.948 0.985-4.533 0.985-1.581 0-3.106-0.332-4.535-0.986-0.695-0.316-1.368-0.719-2.003-1.196v-2.812c0-0.096 0.046-0.181 0.1-0.216l4.449-2.473c0.554 0.47 1.261 0.815 1.993 0.815 0.706 0 1.468-0.35 2.011-0.826l4.395 2.468c0.081 0.052 0.128 0.137 0.128 0.232v2.811c-0.56 0.42-1.149 0.779-1.757 1.076zM28.559 12.456c0.057 0.036 0.090 0.099 0.090 0.173v2.535c-1.928 1.447-4.249 2.104-6.599 1.939 0.362-0.226 0.756-0.506 1.061-0.745 0.117-0.092 0.186-0.233 0.186-0.382v-3.051c0-0.426-0.214-0.818-0.598-1.064l-2.335-1.312 0.568-0.315c0.689 0.562 1.28 0.729 1.811 0.729 0.649 0 1.332-0.318 1.84-0.743l3.977 2.237zM22.742 2.078c1.352 0 2.54 0.884 2.96 2.099-0.816-0.097-1.614-0.5-2.191-1.119-0.104-0.112-0.253-0.17-0.407-0.152-0.152 0.016-0.287 0.103-0.365 0.234-0.554 0.928-1.462 1.548-2.496 1.724 0-0.001-0-0.002-0-0.003 0.005-0.211-0.008-0.426-0.032-0.64-0.002-0.022-0.005-0.044-0.007-0.065-0.031-0.243-0.105-0.547-0.119-0.596 0.552-0.884 1.576-1.482 2.658-1.482zM20.137 5.855c1.227-0.134 2.337-0.751 3.1-1.726 0.751 0.616 1.705 0.99 2.647 1.035-0.007 1.755-1.441 4.826-3.141 4.826-1.31 0-2.428-1.873-2.846-3.172 0.106-0.334 0.183-0.655 0.24-0.963zM20.235 9.508l-0.868 0.481-0.876-0.492c0.325-0.405 0.623-0.875 0.878-1.385 0.245 0.516 0.539 0.989 0.866 1.396zM18.926 6.659c-0.468 1.397-1.67 3.419-3.134 3.419-1.707 0-3.16-2.806-3.437-4.6 0.074-0.018 2.38 0.124 3.967-1.96 0.806 0.674 1.892 1.12 2.949 1.164 0.013 0.633-0.141 1.378-0.345 1.977zM15.82 1.298c2.723 0 3.241 2.344 3.284 2.392-0.987-0.1-1.888-0.584-2.511-1.25-0.104-0.112-0.256-0.168-0.407-0.151s-0.287 0.104-0.366 0.236c-0.539 0.913-1.385 1.556-2.365 1.83-0.378 0.106-0.786 0.154-1.143 0.15 0.133-1.785 1.564-3.207 3.507-3.207zM12.207 8.103c0.252 0.504 0.551 0.986 0.894 1.409l-0.858 0.477-0.888-0.499c0.337-0.429 0.623-0.91 0.852-1.386zM8.822 2.078c1.102 0 2.111 0.559 2.674 1.483-0.028 0.098-0.104 0.488-0.114 0.537-0.676-0.162-1.297-0.522-1.784-1.041-0.105-0.111-0.253-0.167-0.408-0.151-0.152 0.017-0.287 0.104-0.365 0.235-0.65 1.096-1.842 1.777-3.112 1.778 0.155-1.594 1.487-2.841 3.109-2.841zM5.756 5.888c1.396-0.014 2.714-0.672 3.568-1.759 0.584 0.481 1.277 0.797 2.014 0.941 0.029 0.563 0.175 1.247 0.343 1.752-0.268 0.823-0.783 1.803-1.421 2.454-0.004 0.004-0.009 0.006-0.013 0.010-0.399 0.421-0.968 0.704-1.415 0.704-1.561 0-2.783-2.457-3.076-4.102zM2.924 12.628c0-0.074 0.033-0.136 0.066-0.159l4.032-2.237c0.242 0.201 0.297 0.224 0.346 0.26l-0 0c0.474 0.315 0.909 0.473 1.503 0.473 0.632 0 1.207-0.268 1.713-0.68 0.029-0.022 0.059-0.044 0.086-0.067l0.575 0.324-2.396 1.333c-0.358 0.231-0.572 0.623-0.572 1.049v3.051c0 0.149 0.068 0.29 0.186 0.382 0.31 0.244 0.713 0.528 1.061 0.746-2.385 0.163-4.705-0.518-6.6-1.94v-2.535z"></path>
<path fill="#ff6b09" style="fill: var(--color1, #ff6b09)" d="M30.621 20.684c-0.598-0.376-1.333-0.415-1.966-0.108l-5.995 2.896c-0.021-1.122-0.937-2.029-2.064-2.029l-3.437 0.001c-1.695-1.473-3.861-2.376-5.83-2.423-1.942-0.046-3.686-0.059-4.499-0.063v-0.982h-6.829v11.282h6.829v-1.351c1.873 1.074 6.797 3.767 9.134 3.767 0.053 0 0.105-0.001 0.155-0.004 4.11-0.231 13.803-7.051 14.443-7.504 0.625-0.363 1.013-1.035 1.013-1.759 0-0.704-0.356-1.348-0.953-1.722zM5.858 28.287h-4.886v-9.339h4.886v9.339zM30.061 23.332c-0.015 0.008-0.029 0.017-0.043 0.027-0.1 0.071-10.071 7.123-13.953 7.341-0.038 0.002-0.077 0.003-0.118 0.003-2.050 0-7.047-2.696-9.117-3.919v-6.854c0.81 0.004 2.544 0.017 4.476 0.063 1.799 0.043 3.797 0.902 5.344 2.298l0.139 0.125 3.808-0.001c0.604 0 1.096 0.491 1.096 1.096s-0.491 1.096-1.096 1.096h-6.996v0.971h6.996c0.671 0 1.261-0.326 1.639-0.822l6.841-3.305c0.336-0.164 0.711-0.143 1.027 0.056s0.498 0.526 0.498 0.899c0 0.383-0.207 0.738-0.541 0.926z"></path>
<path fill="#ff6b09" style="fill: var(--color1, #ff6b09)" d="M16.273 12.237h-0.972v0.901h0.972v-0.901z"></path>
<path fill="#ff6b09" style="fill: var(--color1, #ff6b09)" d="M16.273 14.033h-0.972v0.901h0.972v-0.901z"></path>
<path fill="#ff6b09" style="fill: var(--color1, #ff6b09)" d="M16.273 15.83h-0.972v0.901h0.972v-0.901z"></path>
</symbol>
<symbol id="icon-open-book" viewBox="0 0 32 32">
<path fill="#fff" style="fill: var(--color2, #fff)" d="M14.099 8.075h-9.488v0.71h9.488v-0.71z"></path>
<path fill="#fff" style="fill: var(--color2, #fff)" d="M14.098 10.724h-8.068v0.71h8.068v-0.71z"></path>
<path fill="#fff" style="fill: var(--color2, #fff)" d="M14.099 13.373h-9.488v0.71h9.488v-0.71z"></path>
<path fill="#fff" style="fill: var(--color2, #fff)" d="M14.098 16.022h-8.068v0.71h8.068v-0.71z"></path>
<path fill="#fff" style="fill: var(--color2, #fff)" d="M14.099 18.671h-9.488v0.71h9.488v-0.71z"></path>
<path fill="#fff" style="fill: var(--color2, #fff)" d="M14.098 21.32h-8.068v0.71h8.068v-0.71z"></path>
<path fill="#fff" style="fill: var(--color2, #fff)" d="M27.124 8.075h-9.488v0.71h9.488v-0.71z"></path>
<path fill="#fff" style="fill: var(--color2, #fff)" d="M25.703 10.724h-8.068v0.71h8.068v-0.71z"></path>
<path fill="#fff" style="fill: var(--color2, #fff)" d="M27.124 13.373h-9.488v0.71h9.488v-0.71z"></path>
<path fill="#fff" style="fill: var(--color2, #fff)" d="M25.703 16.022h-8.068v0.71h8.068v-0.71z"></path>
<path fill="#fff" style="fill: var(--color2, #fff)" d="M27.124 18.671h-9.488v0.71h9.488v-0.71z"></path>
<path fill="#fff" style="fill: var(--color2, #fff)" d="M25.703 21.32h-8.068v0.71h8.068v-0.71z"></path>
<path fill="#fff" style="fill: var(--color2, #fff)" d="M30.55 7.266h-1.303v-1.956c0-0.196-0.159-0.355-0.355-0.355h-10.619c-1.036 0-1.934 0.56-2.406 1.399-0.471-0.839-1.37-1.399-2.406-1.399h-10.619c-0.196 0-0.355 0.159-0.355 0.355v1.956h-1.302c-0.196 0-0.355 0.159-0.355 0.355v19.068c0 0.196 0.159 0.355 0.355 0.355 3.566 0 25.786 0 29.365 0 0.196 0 0.355-0.159 0.355-0.355v-19.068c0-0.196-0.159-0.355-0.355-0.355zM18.273 5.665h10.264c0 3.181 0 11.561 0 19.026h-11.021c-0.489 0-0.977 0.206-1.293 0.473v-17.453c0-1.134 0.908-2.046 2.051-2.046zM3.197 5.665h10.264c1.111 0 2.010 0.864 2.046 1.968 0 0.015 0.002 0.063 0.004 0.078v17.452c-0.315-0.266-0.798-0.472-1.288-0.472h-11.026c0-7.463 0-15.846 0-19.026zM1.539 7.977h0.947v17.070c0 0.196 0.159 0.355 0.355 0.355h11.381c0.541 0 1.065 0.355 1.232 0.933h-13.916v-18.358zM30.194 26.335h-13.916c0.169-0.581 0.687-0.933 1.237-0.933h11.377c0.196 0 0.355-0.159 0.355-0.355v-17.070h0.947v18.358z"></path>
</symbol>
<symbol id="icon-mobile-learning" viewBox="0 0 32 32">
<path fill="#ff6b09" style="fill: var(--color1, #ff6b09)" d="M29.547 0.208h-15.418c-1.004 0-1.82 0.816-1.82 1.82v6.382l-11.454 4.808c-0.13 0.054-0.218 0.177-0.228 0.317s0.059 0.274 0.18 0.347l1.461 0.874v9.317c-0.747 0.17-1.308 0.839-1.308 1.639v0.898c0 0.206 0.167 0.373 0.373 0.373h2.616c0.206 0 0.373-0.167 0.373-0.373v-0.898c0-0.799-0.561-1.467-1.308-1.638v-8.871l1.155 0.691c-0.035 0.266-0.005-0.464-0.016 4.337 0 1.578 4.043 2.424 8.157 2.472v7.271c0 0.376 0.115 0.725 0.312 1.015 0.327 0.484 0.881 0.803 1.508 0.803h15.418c1.003 0 1.818-0.816 1.818-1.818 0 0.050-0.002-1.54 0-27.945 0-0.99-0.819-1.82-1.817-1.82zM3.576 25.712v0.525h-1.87v-0.525c0-0.517 0.418-0.937 0.933-0.937 0.517 0 0.937 0.421 0.937 0.937zM29.547 31.044h-15.418c-0.37 0-0.697-0.187-0.89-0.472-0.116-0.171-0.183-0.377-0.183-0.599v-2.52h17.561v2.521c0 0.584-0.487 1.070-1.070 1.070zM30.616 26.707h-17.562v-4.001c2.008-0.023 8.161-0.465 8.161-2.475-0.002-3.016 0.005-4.24-0.009-4.343l3.35-2.006c0.121-0.072 0.19-0.206 0.18-0.347s-0.098-0.263-0.228-0.317l-11.454-4.808v-3.115h17.562v21.412zM12.681 17.755c-2.069 0-6.053 0.267-7.784 1.397 0.011-3.457-0.12-3.232 0.306-3.525 1.075-0.792 4.15-1.344 7.478-1.344 1.451 0 7.788 0.399 7.788 1.741v3.129c-1.747-1.141-5.71-1.398-7.788-1.398zM13.055 2.028c0-0.591 0.481-1.072 1.072-1.072h15.418c0.592 0 1.071 0.488 1.071 1.072v2.521h-17.561v-2.52zM12.681 9.063l10.859 4.558-2.691 1.61c-1.43-1.419-6.162-1.694-8.168-1.694-2.008 0-6.741 0.276-8.168 1.694l-2.692-1.611 10.86-4.558zM4.898 20.231c0-0.604 2.673-1.731 7.784-1.731 5.113 0 7.788 1.127 7.788 1.731s-2.675 1.731-7.788 1.731c-5.11 0-7.784-1.127-7.784-1.731z"></path>
<path fill="#ff6b09" style="fill: var(--color1, #ff6b09)" d="M21.837 28.016c-0.68 0-1.234 0.553-1.234 1.234s0.553 1.234 1.234 1.234c0.68 0 1.234-0.554 1.234-1.234s-0.553-1.234-1.234-1.234zM21.837 29.737c-0.269 0-0.488-0.219-0.488-0.488s0.219-0.488 0.488-0.488c0.269 0 0.488 0.219 0.488 0.488s-0.219 0.488-0.488 0.488z"></path>
<path fill="#ff6b09" style="fill: var(--color1, #ff6b09)" d="M23.259 2.379h-2.846v0.746h2.846v-0.746z"></path>
</symbol>
<symbol id="icon-list" viewBox="0 0 32 32">
<path fill="#ff6b09" style="fill: var(--color1, #ff6b09)" d="M30.817 4.961c0-0.001-0.001-0.001-0.001-0.002-0.007-0.016-0.015-0.031-0.024-0.045-0.001-0.001-0.002-0.002-0.002-0.003-0.010-0.015-0.021-0.029-0.034-0.042l-4.806-4.806c-0.013-0.013-0.026-0.023-0.041-0.033-0.003-0.002-0.006-0.004-0.009-0.006-0.012-0.007-0.024-0.014-0.036-0.019-0.004-0.002-0.007-0.003-0.011-0.005-0.031-0.013-0.065-0.019-0.099-0.020-0.002 0-0.004-0-0.005-0h-21.171c-0.157 0-0.284 0.127-0.284 0.284v29.311c0 0.019 0.002 0.037 0.006 0.056 0.002 0.008 0.005 0.015 0.007 0.023 0.003 0.010 0.006 0.020 0.009 0.030 0.004 0.009 0.009 0.017 0.014 0.026 0.004 0.007 0.008 0.016 0.013 0.023 0.010 0.014 0.021 0.028 0.033 0.040 0.001 0.001 0.001 0.002 0.003 0.003l2.165 2.164c0.111 0.111 0.29 0.111 0.402 0l1.964-1.963 1.964 1.963c0.055 0.056 0.128 0.083 0.201 0.083s0.145-0.027 0.201-0.083l1.963-1.963 1.965 1.963c0.111 0.111 0.291 0.111 0.402 0l1.963-1.963 1.963 1.963c0.111 0.111 0.291 0.111 0.401 0l1.965-1.963 1.964 1.963c0.055 0.056 0.128 0.083 0.201 0.083s0.145-0.027 0.201-0.083l1.963-1.963 1.965 1.963c0.111 0.111 0.291 0.111 0.401 0l2.165-2.164c0.004-0.004 0.007-0.009 0.011-0.014 0.008-0.009 0.017-0.019 0.024-0.029 0.007-0.009 0.011-0.020 0.016-0.030 0.003-0.007 0.007-0.012 0.009-0.019 0.006-0.013 0.009-0.026 0.012-0.039 0.001-0.005 0.003-0.009 0.005-0.013 0.004-0.020 0.006-0.038 0.006-0.058v-24.503c-0.001-0.037-0.008-0.074-0.023-0.109zM26.033 0.949l3.836 3.835h-3.836v-3.835zM30.271 29.456l-1.88 1.88-1.965-1.963c-0.111-0.111-0.29-0.111-0.401 0l-1.963 1.963-1.964-1.963c-0.111-0.111-0.291-0.111-0.402 0l-1.965 1.963-1.963-1.962c0-0-0-0.001-0-0.001-0.055-0.055-0.128-0.083-0.201-0.083s-0.145 0.028-0.201 0.083c-0 0-0 0-0 0l-1.963 1.963-1.965-1.963c-0.111-0.111-0.29-0.111-0.402 0l-1.963 1.963-1.964-1.963c-0.111-0.111-0.29-0.111-0.402 0l-1.965 1.963-1.88-1.88v-28.909h20.603v4.522c0 0.157 0.127 0.284 0.284 0.284h4.521l0 24.103z"></path>
<path fill="#ff6b09" style="fill: var(--color1, #ff6b09)" d="M6.98 3.234h9.303c0.157 0 0.284-0.127 0.284-0.284s-0.127-0.284-0.284-0.284h-9.303c-0.157 0-0.284 0.127-0.284 0.284s0.127 0.284 0.284 0.284z"></path>
<path fill="#ff6b09" style="fill: var(--color1, #ff6b09)" d="M6.98 4.991h14.919c0.157 0 0.284-0.127 0.284-0.284s-0.127-0.284-0.284-0.284h-14.919c-0.157 0-0.284 0.127-0.284 0.284s0.127 0.284 0.284 0.284z"></path>
<path fill="#ff6b09" style="fill: var(--color1, #ff6b09)" d="M6.696 6.568v9.199c0 0.157 0.127 0.284 0.284 0.284h21.172c0.157 0 0.284-0.127 0.284-0.284v-9.199c0-0.157-0.127-0.284-0.284-0.284h-21.172c-0.157 0-0.284 0.127-0.284 0.284zM12.975 6.852h14.893v2.445h-14.893v-2.445zM12.975 9.865h14.893v2.444h-14.893v-2.444zM12.975 12.877h14.893v2.605h-14.893v-2.605zM7.265 6.852h5.142v2.445h-5.142v-2.445zM7.265 9.865h5.142v2.444h-5.142v-2.444zM7.265 12.877h5.142v2.605h-5.142v-2.605z"></path>
<path fill="#ff6b09" style="fill: var(--color1, #ff6b09)" d="M28.153 17.329h-21.172c-0.157 0-0.284 0.127-0.284 0.284v9.198c0 0.157 0.127 0.284 0.284 0.284s0.284-0.127 0.284-0.284v-2.889h5.142v2.889c0 0.157 0.127 0.284 0.284 0.284s0.284-0.127 0.284-0.284v-2.889h14.893v2.889c0 0.157 0.127 0.284 0.284 0.284s0.284-0.127 0.284-0.284v-9.198c0.001-0.157-0.126-0.284-0.283-0.284zM12.407 23.354h-5.142v-2.443h5.142v2.443zM12.407 20.342h-5.142v-2.444h5.142v2.444zM27.868 23.354h-14.893v-2.443h14.893v2.443zM27.868 20.342h-14.893v-2.444h14.893v2.444z"></path>
<path fill="#ff6b09" style="fill: var(--color1, #ff6b09)" d="M2.947-0.021c-0.157 0-0.284 0.127-0.284 0.284v29.311c0 0.157 0.127 0.284 0.284 0.284s0.284-0.127 0.284-0.284v-29.311c0-0.157-0.127-0.284-0.284-0.284z"></path>
<path fill="#ff6b09" style="fill: var(--color1, #ff6b09)" d="M1.385-0.021c-0.157 0-0.284 0.127-0.284 0.284v29.311c0 0.157 0.127 0.284 0.284 0.284s0.284-0.127 0.284-0.284v-29.311c0-0.157-0.127-0.284-0.284-0.284z"></path>
</symbol>
<symbol id="icon-check-mark" viewBox="0 0 32 32">
<path fill="#ff6b09" style="fill: var(--color1, #ff6b09)" d="M27.382 5.653c-1.159 0.474-2.269 1.053-3.329 1.699-2.132 1.283-4.081 2.812-5.909 4.442-1.828 1.634-3.529 3.382-5.137 5.2-0.402 0.454-2.204 2.479-2.204 2.479l-7.492-10.272-2.828 7.173 10.131 11.055c0.984-1.822 1.931-3.621 2.859-5.184 0.231-0.398 0.472-0.772 0.703-1.151 0 0 1.189-1.912 1.502-2.394 1.25-1.927 2.602-3.803 4.090-5.586 1.49-1.78 3.109-3.478 4.945-4.972 0.914-0.752 1.886-1.447 2.928-2.051 1.040-0.606 2.145-1.137 3.326-1.518-1.229 0.221-2.429 0.606-3.585 1.081z"></path>
</symbol>
<symbol id="icon-vk" viewBox="0 0 32 32">
<path d="M27.541 18.46c1.061 1.036 2.182 2.011 3.134 3.152 0.421 0.507 0.819 1.030 1.123 1.619 0.432 0.836 0.041 1.757-0.709 1.807l-4.662-0.002c-1.202 0.1-2.162-0.384-2.968-1.206-0.645-0.657-1.243-1.357-1.864-2.037-0.255-0.278-0.521-0.539-0.839-0.746-0.636-0.413-1.189-0.287-1.552 0.377-0.37 0.675-0.454 1.423-0.491 2.175-0.050 1.098-0.382 1.386-1.484 1.437-2.357 0.111-4.593-0.245-6.671-1.434-1.832-1.048-3.252-2.528-4.489-4.203-2.407-3.261-4.25-6.845-5.907-10.53-0.373-0.83-0.1-1.276 0.816-1.291 1.521-0.030 3.041-0.027 4.564-0.002 0.618 0.009 1.027 0.364 1.266 0.947 0.823 2.023 1.83 3.948 3.093 5.732 0.337 0.475 0.68 0.95 1.168 1.284 0.541 0.37 0.952 0.248 1.207-0.355 0.161-0.382 0.232-0.793 0.268-1.202 0.121-1.407 0.136-2.812-0.075-4.214-0.13-0.875-0.623-1.442-1.496-1.607-0.446-0.084-0.379-0.25-0.164-0.505 0.375-0.439 0.727-0.712 1.43-0.712h5.269c0.829 0.164 1.014 0.536 1.127 1.371l0.004 5.852c-0.009 0.323 0.161 1.282 0.743 1.496 0.466 0.152 0.773-0.22 1.052-0.516 1.261-1.339 2.162-2.921 2.966-4.559 0.357-0.72 0.664-1.469 0.961-2.216 0.22-0.555 0.566-0.828 1.191-0.816l5.071 0.005c0.15 0 0.302 0.002 0.448 0.027 0.855 0.146 1.089 0.513 0.825 1.348-0.416 1.309-1.225 2.4-2.016 3.496-0.846 1.17-1.75 2.3-2.589 3.477-0.77 1.075-0.709 1.617 0.248 2.55z"></path>
</symbol>
<symbol id="icon-logo-favicon" viewBox="0 0 23 32">
<path fill="#ff6b09" style="fill: var(--color1, #ff6b09)" d="M21.908 16.593c-0.284-0.635-0.675-1.261-1.247-1.983-1.442-1.813-1.882-5.857-1.887-5.896-0.020-0.194-0.156-0.354-0.337-0.412-0.186-0.058-0.386-0.005-0.518 0.141-1.721 1.925-0.997 4.897-0.606 6.085 0.108 0.325 0.225 0.708 0.308 1.096 0.636 3.137-0.592 4.558-0.88 4.844-0.279 0.078-0.469 0.039-0.645-0.15-0.606-0.664-0.807-2.841-0.523-5.678 0.059-0.577 0.044-1.096-0.039-1.581-0.598-3.486-2.791-5.722-3.349-6.507-1.535-2.269-1.692-6.046-1.696-6.080-0.005-0.179-0.108-0.339-0.269-0.417-0.156-0.078-0.347-0.068-0.494 0.034-2.562 1.741-2.342 5.935-1.985 8.276 0.083 0.543 0.244 1.096 0.523 1.794 0.992 2.497-0.196 5.721-0.205 5.75s-0.020 0.053-0.024 0.082c-0.152 0.795-0.406 1.27-0.689 1.27-0.029 0-0.059-0.005-0.093-0.015-0.347-0.073-0.528-0.441-0.533-0.761-0.020-4.136-4.17-5.527-4.214-5.542-0.186-0.058-0.391-0.005-0.518 0.145-0.132 0.15-0.156 0.359-0.068 0.533 0.049 0.102 0.205 0.548 0.098 2.124-0.093 1.416-0.352 2.817-0.768 4.16-0.988 3.219-0.831 6.269-0.821 6.415 0.759 8.257 12.635 9.704 19.683 5.052 0.772-0.509 1.403-1.091 1.868-1.731 2.601-3.588 1.071-8.461-0.068-11.050zM3.844 24.481c0.015 0.267-0.191 0.494-0.46 0.509h-0.029c-0.259 0-0.474-0.199-0.489-0.456-0.044-0.708-0.034-1.45 0.020-2.255 0.020-0.267 0.254-0.465 0.523-0.451 0.269 0.019 0.474 0.252 0.455 0.519-0.054 0.766-0.064 1.464-0.020 2.133zM4.084 20.186c-0.029 0.247-0.24 0.427-0.484 0.427-0.020 0-0.039 0-0.064-0.005-0.264-0.034-0.455-0.272-0.425-0.538l0.235-1.871c0.034-0.262 0.274-0.451 0.548-0.422 0.269 0.034 0.46 0.276 0.425 0.543l-0.235 1.867z"></path>
<path fill="#ff6b09" style="fill: var(--color1, #ff6b09)" d="M18.601 6.633c-0.267-0.041-0.449-0.288-0.408-0.553 0.030-0.197 0.207-1.205 0.686-1.713 0.185-0.196 0.493-0.206 0.691-0.022s0.207 0.49 0.022 0.685c-0.203 0.215-0.376 0.829-0.433 1.197-0.041 0.262-0.287 0.445-0.558 0.405z"></path>
<path fill="#ff6b09" style="fill: var(--color1, #ff6b09)" d="M0.778 9.048c-0.094-0.361-0.326-0.955-0.549-1.149-0.203-0.177-0.223-0.483-0.045-0.684s0.486-0.222 0.69-0.045c0.527 0.458 0.802 1.445 0.852 1.638 0.067 0.259-0.091 0.523-0.352 0.59-0.267 0.067-0.529-0.094-0.595-0.349z"></path>
</symbol>
<symbol id="icon-phone" viewBox="0 0 32 32">
<path fill="#ff6b09" style="fill: var(--color1, #ff6b09)" d="M4.657 0.002c-0.515 0.024-1.021 0.243-1.392 0.651l-2.595 2.852c0.004-0.008-0.010-0.007-0.084 0.097-0.039 0.054-0.070 0.113-0.090 0.176-1.056 3.364-0.348 7.064 1.376 10.584s4.475 6.888 7.633 9.651c3.158 2.764 6.721 4.926 10.119 5.999s6.692 1.058 9.133-0.713c0.026-0.020 0.051-0.041 0.075-0.065 0.064-0.064 0.066-0.072 0.056-0.062l0.010-0.012 2.582-2.84c0.742-0.816 0.682-2.098-0.134-2.84l-6.126-5.571c-0.816-0.742-2.098-0.683-2.84 0.133l-2.772 3.048c-2.25-0.652-4.173-1.756-6.023-3.439s-3.132-3.494-3.993-5.673l2.771-3.048c0.742-0.816 0.683-2.098-0.133-2.84l-6.126-5.571c-0.408-0.371-0.933-0.542-1.448-0.518l-0.001 0zM4.715 1.253c0.19-0.008 0.383 0.057 0.541 0.201l6.126 5.571c0.316 0.287 0.337 0.745 0.050 1.061l-3.063 3.366c-0.077 0.085-0.129 0.19-0.151 0.302s-0.013 0.229 0.027 0.337c0.93 2.537 2.429 4.618 4.493 6.495s4.275 3.174 6.889 3.859c0.111 0.029 0.228 0.027 0.339-0.005s0.21-0.095 0.287-0.18l3.064-3.367c0.287-0.315 0.744-0.336 1.060-0.049l6.127 5.571c0.316 0.287 0.336 0.744 0.049 1.060l-2.561 2.815c-2.003 1.438-4.826 1.519-7.986 0.521-3.173-1.002-6.617-3.076-9.666-5.744s-5.702-5.926-7.332-9.254c-1.614-3.294-2.199-6.624-1.312-9.559l2.502-2.75c0.143-0.158 0.33-0.242 0.52-0.251l0 0z"></path>
</symbol>
<symbol id="icon-instagram" viewBox="0 0 32 32">
<path fill="#fff" style="fill: var(--color2, #fff)" d="M0.528 10.029c0.103-0.724 0.181-1.452 0.311-2.171 0.739-4.072 3.622-6.842 7.743-6.984 4.963-0.171 9.941-0.18 14.903-0.001 4.486 0.161 7.735 3.483 7.875 7.971 0.149 4.765 0.149 9.542 0 14.307-0.14 4.488-3.388 7.809-7.875 7.971-4.962 0.179-9.941 0.184-14.903-0.003-4.487-0.169-7.589-3.498-7.889-7.992-0.026-0.389-0.109-0.774-0.166-1.161 0-3.979 0-7.958 0-11.937zM16.004 28.463c2.271 0 4.544 0.068 6.812-0.016 3.556-0.132 5.743-2.254 5.826-5.806 0.103-4.426 0.103-8.859 0-13.286-0.083-3.552-2.272-5.723-5.826-5.799-4.511-0.095-9.028-0.095-13.539 0-3.527 0.074-5.721 2.202-5.817 5.714-0.122 4.482-0.122 8.973 0 13.455 0.096 3.512 2.289 5.591 5.817 5.721 2.239 0.083 4.484 0.016 6.727 0.016z"></path>
<path fill="#fff" style="fill: var(--color2, #fff)" d="M15.999 8.115c-4.355 0-7.885 3.53-7.885 7.885s3.531 7.885 7.885 7.885c4.355 0 7.885-3.53 7.885-7.885s-3.53-7.885-7.885-7.885zM15.999 21.17c-2.856 0-5.17-2.315-5.17-5.171s2.315-5.17 5.171-5.17c2.856 0 5.171 2.315 5.171 5.171s-2.315 5.171-5.171 5.171z"></path>
<path fill="#fff" style="fill: var(--color2, #fff)" d="M26.221 7.755c0 1.036-0.84 1.876-1.876 1.876s-1.876-0.84-1.876-1.876c0-1.036 0.84-1.876 1.876-1.876s1.876 0.84 1.876 1.876z"></path>
</symbol>
</defs>
</svg>



